<?xml version="1.0" standalone="no"?><!DOCTYPE svg PUBLIC "-//W3C//DTD SVG 1.1//EN" "http://www.w3.org/Graphics/SVG/1.1/DTD/svg11.dtd"><svg t="1542589856433" class="icon" style="" viewBox="0 0 1024 1024" version="1.1" xmlns="http://www.w3.org/2000/svg" p-id="3803" xmlns:xlink="http://www.w3.org/1999/xlink" width="16" height="16"><defs><style type="text/css"></style></defs><path d="M354.353687 519.719681l-251.717777 0c-52.141827 0-94.39316 42.282545-94.39316 94.394166l0 251.717777c0 52.113635 42.250325 94.392153 94.39316 94.392153l251.717777 0c52.144848 0 94.395173-42.278518 94.395173-94.392153l0-251.717777C448.74886 562.001219 406.498535 519.719681 354.353687 519.719681zM385.743901 834.639764c0 37.157571-25.236217 62.377679-62.417954 62.377679L133.645526 897.017443c-37.178716 0-61.994061-25.107338-61.994061-62.264909L71.651465 645.337927c0-37.156565 25.668165-62.411913 62.846881-62.411913l188.868883 0c37.180729 0 62.377679 25.938007 62.377679 63.094571L385.744908 834.639764z" p-id="3804"></path><path d="M858.109426 519.719681 606.392656 519.719681c-52.142834 0-94.39316 42.282545-94.39316 94.394166l0 251.717777c0 52.113635 42.250325 94.392153 94.39316 94.392153l251.71677 0c52.144848 0 94.395173-42.278518 94.395173-94.392153l0-251.717777C952.5046 562.001219 910.254274 519.719681 858.109426 519.719681zM889.500647 834.639764c0 37.157571-25.236217 62.377679-62.417954 62.377679L637.401266 897.017443c-37.177709 0-61.993054-25.107338-61.993054-62.264909L575.408212 645.337927c0-37.156565 25.667158-62.411913 62.846881-62.411913l188.867876 0c37.180729 0 62.377679 25.938007 62.377679 63.094571L889.500647 834.639764z" p-id="3805"></path><path d="M858.109426 16.446233 606.392656 16.446233c-52.142834 0-94.39316 42.282545-94.39316 94.394166l0 251.717777c0 52.113635 42.250325 94.392153 94.39316 94.392153l251.71677 0c52.144848 0 94.395173-42.278518 94.395173-94.392153l0-251.717777C952.5046 58.727771 910.254274 16.446233 858.109426 16.446233zM889.500647 331.366316c0 37.157571-25.236217 62.377679-62.417954 62.377679L637.401266 393.743995c-37.177709 0-61.993054-25.107338-61.993054-62.264909L575.408212 142.064479c0-37.156565 25.667158-62.411913 62.846881-62.411913l188.867876 0c37.180729 0 62.377679 25.938007 62.377679 63.094571L889.500647 331.366316z" p-id="3806"></path></svg>